<svg xmlns="http://www.w3.org/2000/svg" version="1.1" xmlns:xlink="http://www.w3.org/1999/xlink" width="512" height="512" x="0" y="0" viewBox="0 0 512 512" style="enable-background:new 0 0 512 512" xml:space="preserve" class=""><g><path fill="#b9f0ff" d="m472.775 283.378-207.85-207.85-104.56 104.56L450.768 470.49l56.282-56.282a134.377 134.377 0 0 0 4.95-36.123c0-33.557-13.073-68.554-39.225-94.707z" opacity="1" data-original="#b9f0ff"></path><path fill="#7ce3ff" d="M470.793 419.284c-5.002 0-10.003-.287-14.979-.844-29.125-3.259-57.385-16.047-79.719-38.381l-207.85-207.85-92.716 92.716 207.85 207.85c26.15 26.15 60.424 39.225 94.698 39.225 33.563 0 68.548-13.075 94.698-39.225 16.868-16.868 28.288-37.118 34.275-58.566-11.953 3.377-24.196 5.075-36.257 5.075z" opacity="1" data-original="#7ce3ff"></path><ellipse cx="193.326" cy="310.813" fill="#ff8e9e" rx="30.654" ry="24.411" transform="rotate(-44.96 193.157 310.597)" opacity="1" data-original="#ff8e9e"></ellipse><ellipse cx="310.915" cy="193.427" fill="#ff8e9e" rx="30.654" ry="24.411" transform="rotate(-44.96 310.666 193.307)" opacity="1" data-original="#ff8e9e"></ellipse><g fill="#313d40"><path d="M185.346 268.069a7.727 7.727 0 0 0-10.936 10.918l8.644 8.658a7.7 7.7 0 0 0 5.468 2.268 7.727 7.727 0 0 0 5.468-13.186zM286.303 184.595l-8.645-8.658a7.726 7.726 0 1 0-10.935 10.918l8.645 8.658a7.7 7.7 0 0 0 5.467 2.268 7.702 7.702 0 0 0 5.459-2.259 7.725 7.725 0 0 0 .009-10.927zM245.232 222.343l-24.335 24.293a7.727 7.727 0 0 0 10.917 10.936l24.335-24.293a7.727 7.727 0 0 0-10.917-10.936z" fill="#313d40" opacity="1" data-original="#313d40"></path></g><path fill="#8288cb" d="m285.529 54.925-41.573-41.573C235.406 4.803 224.04 0 211.722 0a45.585 45.585 0 0 0-32.233 13.351l-85.051 85.05v94.411h94.411l96.68-96.68c11.379-11.379 11.379-29.828 0-41.207z" opacity="1" data-original="#8288cb" class=""></path><path fill="#676fb2" d="m94.438 98.401-81.086 81.087A45.586 45.586 0 0 0 0 211.722c0 11.746 4.803 23.685 13.352 32.233l41.573 41.573c11.379 11.379 29.828 11.379 41.207 0l92.716-92.716c-52.141 0-94.41-42.269-94.41-94.411z" opacity="1" data-original="#676fb2"></path><path fill="#ff8e9e" d="M439.173 315.337c-7.037-7.037-18.239-8.003-26.185-2.011-20.957 15.804-48.876 19.795-74.886 11.626a97.96 97.96 0 0 0-21.262-4.15v97.637h138.974c6.441-12.368 9.856-26.185 9.828-40.531-.046-23.507-9.847-45.948-26.469-62.571z" opacity="1" data-original="#ff8e9e"></path><path fill="#ea5b70" d="M249.682 338.118c-11.086 7.096-12.772 22.628-3.465 31.935l69.941 69.941c16.539 16.539 38.529 25.648 61.918 25.648 23.05 0 45.619-9.348 61.918-25.648a87.807 87.807 0 0 0 15.819-21.554c-29.125-3.259-57.385-16.047-79.719-38.381l-59.255-59.256c-23.477-1.949-47.108 4.481-67.157 17.315z" opacity="1" data-original="#ea5b70"></path><g fill="#4c5699"><path d="M66.086 170.46a7.727 7.727 0 1 0-10.927 10.928l50.704 50.704c1.509 1.508 3.486 2.263 5.463 2.263s3.955-.755 5.463-2.263a7.727 7.727 0 0 0 0-10.928zM232.092 105.862l-50.704-50.704a7.727 7.727 0 1 0-10.927 10.928l50.704 50.704c1.509 1.508 3.486 2.263 5.463 2.263s3.955-.755 5.463-2.263a7.728 7.728 0 0 0 .001-10.928zM123.736 112.81a7.727 7.727 0 1 0-10.927 10.928l50.704 50.704c1.509 1.508 3.486 2.263 5.463 2.263s3.955-.755 5.463-2.263a7.727 7.727 0 0 0 0-10.928z" fill="#4c5699" opacity="1" data-original="#4c5699"></path></g><path fill="#ea5b70" d="m142.009 485.621 21.854 21.853c3.017 3.017 6.972 4.526 10.927 4.526s7.909-1.509 10.927-4.526l21.854-21.853c6.035-6.034 6.035-15.819.001-21.853-4.688-4.688-11.631-5.717-17.328-3.123V430.71c0-8.534-6.919-15.453-15.453-15.453s-15.453 6.918-15.453 15.453v29.935a15.402 15.402 0 0 0-17.328 3.123c-6.035 6.034-6.035 15.819-.001 21.853z" opacity="1" data-original="#ea5b70"></path></g></svg>